<svg xmlns="http://www.w3.org/2000/svg" width="3300" height="2550" viewBox="0 0 3300 2550">
  <defs>
    <style>
      .cls-1 {
        fill: #ffda00;
      }

      .cls-1, .cls-2 {
        fill-rule: evenodd;
      }

      .cls-2 {
        fill: #17191e;
      }
    </style>
  </defs>
  <path id="Path" class="cls-1" d="M1177.66,1153.71H347.226V323.641H1177.66V1153.71Z"/>
  <path class="cls-2" d="M861.189,644.34l23.181,23.183a7.123,7.123,0,0,1,2.084,5.062,7.044,7.044,0,0,1-2.1,5.066h0.021L736.74,825.2l9.743,9.728L894.1,687.378a20.963,20.963,0,0,0,0-29.582l-56.137-56.091a20.957,20.957,0,0,0-29.617,0L660.761,749.249l9.733,9.724L818.1,611.432a7.207,7.207,0,0,1,10.134,0l23.211,23.18-140,139.933,9.743,9.728ZM652.157,787.054c-2.855-2.8-6.214-5.035-10.69-5.117a11.155,11.155,0,0,0-8.941,4.589,16.935,16.935,0,0,0-2.992,8.79l-4.771,55.6-0.011-.021a17.131,17.131,0,0,0-.074,1.807,18.131,18.131,0,0,0,5.267,13.038A18.328,18.328,0,0,0,642.931,871h0.042c0.537,0,1.074-.022,1.633-0.065l55.81-4.781a16.854,16.854,0,0,0,8.773-3.01,11.122,11.122,0,0,0,4.6-8.919c-0.084-4.47-2.3-7.841-5.108-10.68Zm-8.605,70.172c-0.137,0-.358.022-0.579,0.022-3.043-.217-4.328-1.5-4.539-4.55,0-.018-0.01-0.219-0.042-0.567h0.074l4.686-54.638,55.073,55.05Z"/>
</svg>
