<svg xmlns="http://www.w3.org/2000/svg" width="3300" height="2550" viewBox="0 0 3300 2550">
  <defs>
    <style>
      .cls-1 {
        fill: #ffda00;
      }

      .cls-1, .cls-2 {
        fill-rule: evenodd;
      }

      .cls-2 {
        fill: #17191e;
      }
    </style>
  </defs>
  <path id="Path" class="cls-1" d="M1261.76,1088.32H296.628V123.378H1261.76V1088.32Z"/>
  <path class="cls-2" d="M784.636,696.848V677.133H768.651v20.108a46.433,46.433,0,0,0-35.987,35.293H626.943v16.008H731.892a46.389,46.389,0,0,0,92.049-.012H931.424V732.546H823.182A46.429,46.429,0,0,0,784.636,696.848Zm-6.695,76.293a30.423,30.423,0,1,1,30.4-30.424A30.488,30.488,0,0,1,777.941,773.141ZM907.506,472.7H650.873a25.446,25.446,0,0,0-25.387,25.4v142.79A25.457,25.457,0,0,0,650.873,666.3H907.506a25.475,25.475,0,0,0,25.4-25.409V498.1A25.464,25.464,0,0,0,907.506,472.7Zm9.414,168.193a9.539,9.539,0,0,1-9.414,9.4H650.873a9.539,9.539,0,0,1-9.413-9.4l0.025-142.79a9.525,9.525,0,0,1,9.388-9.422l256.633,0.037a9.507,9.507,0,0,1,9.414,9.385l-0.026,142.79h0.026Z"/>
</svg>
