<svg xmlns="http://www.w3.org/2000/svg" width="2550" height="3300" viewBox="0 0 2550 3300">
  <defs>
    <style>
      .cls-1 {
        fill: #16181d;
      }

      .cls-1, .cls-2 {
        fill-rule: evenodd;
      }

      .cls-2 {
        fill: #fff;
      }
    </style>
  </defs>
  <path id="Path" class="cls-1" d="M1178.04,1178.01H0.026V-0.005H1178.04V1178.01Z"/>
  <path id="Composite_Path" data-name="Composite Path" class="cls-2" d="M749.575,640.522l-28.086,28.155-23.137-23.152c50.821-56.514,49.526-143.568-4.83-197.89a143.171,143.171,0,0,0-101.884-42.224c-35.95,0-69.6,13.545-96.059,37.389L472.44,419.619l28.128-28.1a7.566,7.566,0,0,0-10.7-10.7L456.378,414.24A191.047,191.047,0,0,0,585.827,740.428c-2.773,14.319-12.452,45.239-45.7,45.239h-9.463a7.549,7.549,0,1,0,0,15.1H652.538a7.549,7.549,0,1,0,0-15.1H579.184c13.532-12.942,19.788-31.379,21.957-45.411a189.824,189.824,0,0,0,125.684-55.531L760.3,651.244a7.583,7.583,0,1,0-10.726-10.722h0ZM682.822,458.361c50.287,50.246,50.287,132.059,0,182.334a128.915,128.915,0,0,1-182.369,0c-50.287-50.275-50.359-132.088-.072-182.334a128.92,128.92,0,0,1,182.441,0h0ZM415.51,549.528c0-44.461,16.867-86.079,46.75-118.662l22.605,22.66c-50.762,56.49-49.5,143.507,4.86,197.894a143.308,143.308,0,0,0,101.913,42.216c35.92,0,69.528-13.54,96.031-37.41l22.56,22.6c-32.527,29.875-74.143,46.755-118.591,46.755A176.148,176.148,0,0,1,415.51,549.528h0Z"/>
</svg>
