<svg xmlns="http://www.w3.org/2000/svg" width="2550" height="3300" viewBox="0 0 2550 3300">
  <defs>
    <style>
      .cls-1 {
        fill: #f4d31f;
      }

      .cls-1, .cls-2 {
        fill-rule: evenodd;
      }

      .cls-2 {
        fill: #16181d;
      }
    </style>
  </defs>
  <path id="Path" class="cls-1" d="M1169,1169H0L1.806,2.333,1169,0V1169Z"/>
  <path id="Composite_Path" data-name="Composite Path" class="cls-2" d="M750.475,497l-99.6-.028c-1.543-25.942-8.925-49.428-20.639-67.53-12.3-18.993-30.245-32.364-51.12-33.873v-0.3H477.469a29.04,29.04,0,0,0-28.5-23.809H422.316a29.125,29.125,0,0,0-29.058,29.062V449.36H351.27a9.689,9.689,0,0,0,0,19.378h41.988v80.708H351.27a9.713,9.713,0,0,0-9.667,9.684h0a9.726,9.726,0,0,0,9.667,9.712h41.988v38.723a29.132,29.132,0,0,0,29.058,29.056h26.658a29.064,29.064,0,0,0,26.982-18.544H579.115v-0.312c20.875-1.526,38.816-14.869,51.12-33.907,11.714-18.04,19.1-41.554,20.639-67.5h99.6a9.826,9.826,0,0,1,9.695,9.684V692.334a9.843,9.843,0,0,1-9.695,9.7H538.967a29.086,29.086,0,0,0-29.059,29.045v36.335H529.27V731.074a9.794,9.794,0,0,1,9.7-9.683H750.475a29.123,29.123,0,0,0,29.059-29.057V526.04A29.087,29.087,0,0,0,750.475,497ZM458.641,607.565a9.786,9.786,0,0,1-9.667,9.666H422.316a9.83,9.83,0,0,1-9.7-9.666V400.517a9.86,9.86,0,0,1,9.7-9.7h26.658a9.815,9.815,0,0,1,9.667,9.7V607.565Zm19.777-8.9V414.659h81.335V598.67H478.418ZM613.987,573.3c-9.9,15.106-22.21,23.678-34.872,25.1V414.926c12.662,1.418,24.969,9.99,34.872,25.085,10.763,16.514,17.85,40.266,17.821,66.679C631.837,533.052,624.75,556.8,613.987,573.3Z"/>
</svg>
