<svg xmlns="http://www.w3.org/2000/svg" width="2550" height="3300" viewBox="0 0 2550 3300">
  <defs>
    <style>
      .cls-1 {
        fill: #f4d31f;
      }

      .cls-1, .cls-2 {
        fill-rule: evenodd;
      }

      .cls-2 {
        fill: #16181d;
      }
    </style>
  </defs>
  <path id="Path" class="cls-1" d="M1187,1187H0V0H1187V1187Z"/>
  <path class="cls-2" d="M600.19,705.437v-24.25H580.53v24.734a57.114,57.114,0,0,0-44.26,43.415H406.247V769.03H535.321a57.051,57.051,0,0,0,113.209-.018H780.721V749.353H647.6A57.111,57.111,0,0,0,600.19,705.437Zm-8.234,93.851a37.424,37.424,0,1,1,37.394-37.424A37.5,37.5,0,0,1,591.956,799.288ZM751.305,429.707H435.677a31.3,31.3,0,0,0-31.223,31.249V636.608a31.312,31.312,0,0,0,31.223,31.255H751.305a31.335,31.335,0,0,0,31.237-31.255V460.956A31.324,31.324,0,0,0,751.305,429.707Zm11.578,206.9a11.734,11.734,0,0,1-11.578,11.561H435.677A11.734,11.734,0,0,1,424.1,636.608l0.03-175.652a11.716,11.716,0,0,1,11.547-11.589l315.628,0.046a11.692,11.692,0,0,1,11.578,11.543l-0.031,175.652h0.031Z"/>
</svg>
