<svg xmlns="http://www.w3.org/2000/svg" width="2550" height="3300" viewBox="0 0 2550 3300">
  <defs>
    <style>
      .cls-1 {
        fill: #16181d;
      }

      .cls-1, .cls-2 {
        fill-rule: evenodd;
      }

      .cls-2 {
        fill: #fff;
      }
    </style>
  </defs>
  <path id="Path" class="cls-1" d="M1186.96,1187L0.849,1184.86-0.062-.019H1186.96V1187Z"/>
  <path id="Composite_Path" data-name="Composite Path" class="cls-2" d="M796.638,536.811a7.118,7.118,0,0,0-2.361-4.929,5.622,5.622,0,0,0-.333-0.549L750.1,497.348v-102.5a6.9,6.9,0,0,0-6.926-6.9H464.037a6.9,6.9,0,0,0-6.926,6.9v102.5l-43.877,33.985a3.337,3.337,0,0,0-.289.549,6.968,6.968,0,0,0-2.376,4.929V769.367a5.532,5.532,0,0,0,.348,1.247c0.072,0.343-.089.694,0,1.041,0.115,0.235.346,0.35,0.464,0.611a7.007,7.007,0,0,0,1.361,1.824,6.249,6.249,0,0,0,1.26,1.1c0.16,0.112.261,0.318,0.421,0.4a7.425,7.425,0,0,0,2.767.64,1.385,1.385,0,0,0,.305.083H789.712a6.993,6.993,0,0,0,3.044-.694,3.151,3.151,0,0,0,.491-0.434,4.49,4.49,0,0,0,1.132-1.048,7.535,7.535,0,0,0,1.448-1.878,5.674,5.674,0,0,0,.435-0.611c0.087-.347-0.072-0.665.029-1.012a9.65,9.65,0,0,0,.347-1.222V536.811ZM424.392,550.922l35.384,27.416,96.459,74.739L424.392,755.224v-204.3ZM726.1,711.319l-75.088-58.242L777.135,555.3l5.651-4.376V755.286Zm52.336-174.508L750.1,558.745V514.873ZM470.963,401.77H736.244V567.121L603.633,669.937,470.963,567.121V401.77Zm-13.852,113.1v43.872l-8.288-6.4-20.041-15.531ZM437.723,762.44l129.8-100.582,31.864,24.654a6.945,6.945,0,0,0,8.507,0l31.819-24.654L769.456,762.469Z"/>
</svg>
