<svg xmlns="http://www.w3.org/2000/svg" width="2550" height="3300" viewBox="0 0 2550 3300">
  <defs>
    <style>
      .cls-1 {
        fill: #f4d31f;
      }

      .cls-1, .cls-2 {
        fill-rule: evenodd;
      }

      .cls-2 {
        fill: #16181d;
      }
    </style>
  </defs>
  <path id="Path" class="cls-1" d="M1163,1163H0V-0.006H1163V1163Z"/>
  <path class="cls-2" d="M719.787,449.321l32.465,32.48a9.988,9.988,0,0,1,2.919,7.094,9.866,9.866,0,0,1-2.949,7.094h0.03L545.5,702.725l13.645,13.63L765.881,509.619a29.381,29.381,0,0,0,0-41.448l-78.618-78.589a29.344,29.344,0,0,0-41.477,0L439.1,596.307l13.631,13.624L659.445,403.212a10.086,10.086,0,0,1,14.191,0l32.508,32.48L510.073,631.75l13.645,13.629ZM427.046,649.273c-4-3.928-8.7-7.054-14.971-7.167a15.624,15.624,0,0,0-12.523,6.428,23.755,23.755,0,0,0-4.19,12.315l-6.68,77.895-0.016-.029a24.085,24.085,0,0,0-.1,2.534,25.4,25.4,0,0,0,7.376,18.264,25.657,25.657,0,0,0,18.187,7.376h0.059c0.752,0,1.5-.028,2.287-0.09l78.159-6.7a23.581,23.581,0,0,0,12.287-4.216,15.584,15.584,0,0,0,6.445-12.5c-0.117-6.264-3.217-10.988-7.154-14.967ZM415,747.593c-0.192,0-.5.028-0.811,0.028-4.262-.3-6.062-2.094-6.357-6.372,0-.028-0.014-0.31-0.059-0.8h0.1l6.563-76.552,77.127,77.127Z"/>
</svg>
