<svg xmlns="http://www.w3.org/2000/svg" width="2550" height="3300" viewBox="0 0 2550 3300">
  <defs>
    <style>
      .cls-1 {
        fill: #16181d;
      }

      .cls-1, .cls-2 {
        fill-rule: evenodd;
      }

      .cls-2 {
        fill: #fff;
      }
    </style>
  </defs>
  <path id="Path" class="cls-1" d="M1165.85,1166H-0.164V-0.019H1165.85V1166Z"/>
  <path class="cls-2" d="M520.757,521.028a32.682,32.682,0,1,0,32.623,32.678A32.729,32.729,0,0,0,520.757,521.028Zm0,50.391a17.7,17.7,0,1,1,17.649-17.713A17.748,17.748,0,0,1,520.757,571.419Zm76.64-50.391a32.682,32.682,0,1,0,32.7,32.678A32.75,32.75,0,0,0,597.4,521.028Zm0,50.391a17.7,17.7,0,1,1,17.686-17.713A17.721,17.721,0,0,1,597.4,571.419Zm76.65-50.391a32.682,32.682,0,1,0,32.692,32.678A32.752,32.752,0,0,0,674.047,521.028Zm0,50.391a17.7,17.7,0,1,1,17.684-17.713A17.717,17.717,0,0,1,674.047,571.419ZM597.4,368.728c-113.946,0-206.628,82.444-206.628,183.757,0,101.346,92.682,183.785,206.628,183.785a228.015,228.015,0,0,0,65.178-9.538l70.532,70.514V691.034c45.164-35.014,70.963-85.315,70.963-138.549C804.07,451.172,711.379,368.728,597.4,368.728ZM721.138,681.3l-3.04,2.247v77.516L666.75,709.708,662.4,711.1a213.1,213.1,0,0,1-65,10.167c-105.654,0-191.662-75.7-191.662-168.785,0-93.056,86.008-168.752,191.662-168.752s191.7,75.7,191.7,168.752C789.1,602.162,764.337,649.074,721.138,681.3Z"/>
</svg>
