<svg xmlns="http://www.w3.org/2000/svg" width="3300" height="2550" viewBox="0 0 3300 2550">
  <defs>
    <style>
      .cls-1 {
        fill: #ffda00;
      }

      .cls-1, .cls-2 {
        fill-rule: evenodd;
      }

      .cls-2 {
        fill: #17191e;
      }
    </style>
  </defs>
  <path id="Path" class="cls-1" d="M1325.19,1120.3H406.064l1.423-917.1,917.7-1.836V1120.3Z"/>
  <path id="Composite_Path" data-name="Composite Path" class="cls-2" d="M996.129,592.046l-78.312-.02c-1.213-20.395-7.017-38.855-16.227-53.087-9.675-14.93-23.781-25.441-40.193-26.625v-0.236h-79.92a22.835,22.835,0,0,0-22.4-18.719H738.113a22.9,22.9,0,0,0-22.847,22.846V554.6H682.253a7.617,7.617,0,0,0,0,15.234h33.013v63.444H682.253a7.636,7.636,0,0,0-7.6,7.613h0a7.646,7.646,0,0,0,7.6,7.635h33.013v30.438a22.905,22.905,0,0,0,22.847,22.843h20.959a22.852,22.852,0,0,0,21.215-14.579H861.4v-0.245c16.412-1.2,30.518-11.689,40.193-26.655,9.21-14.179,15.014-32.665,16.227-53.06h78.312a7.725,7.725,0,0,1,7.621,7.613V745.6a7.74,7.74,0,0,1-7.621,7.621H829.83a22.864,22.864,0,0,0-22.847,22.832v28.564h15.223V776.055a7.7,7.7,0,0,1,7.624-7.613h166.3a22.9,22.9,0,0,0,22.851-22.84V614.881A22.875,22.875,0,0,0,996.129,592.046ZM766.673,678.964a7.7,7.7,0,0,1-7.6,7.6H738.113a7.73,7.73,0,0,1-7.624-7.6V516.205a7.751,7.751,0,0,1,7.624-7.624h20.959a7.716,7.716,0,0,1,7.6,7.624V678.964Zm15.55-6.991V527.323h63.95v144.65h-63.95Zm106.592-19.944c-7.787,11.875-17.462,18.616-27.418,19.735V527.532c9.956,1.117,19.631,7.854,27.418,19.721,8.462,12.98,14.035,31.651,14.011,52.415C902.85,620.39,897.277,639.061,888.815,652.029Z"/>
</svg>
